<svg width="18" height="10" viewBox="0 0 18 10" fill="none" xmlns="http://www.w3.org/2000/svg">
<path d="M1.79688 2.55469H16.3906C16.8359 2.55469 17.1953 2.17969 17.1953 1.73438C17.1953 1.28125 16.8438 0.914062 16.3906 0.914062H1.79688C1.34375 0.914062 0.992188 1.28906 0.992188 1.73438C0.992188 2.17188 1.35156 2.55469 1.79688 2.55469ZM1.79688 6.1875H16.3906C16.8359 6.1875 17.1953 5.8125 17.1953 5.36719C17.1953 4.91406 16.8438 4.54688 16.3906 4.54688H1.79688C1.34375 4.54688 0.992188 4.92188 0.992188 5.36719C0.992188 5.80469 1.35156 6.1875 1.79688 6.1875ZM1.79688 9.82812H16.3906C16.8359 9.82812 17.1953 9.44531 17.1953 9C17.1953 8.54688 16.8438 8.17969 16.3906 8.17969H1.79688C1.34375 8.17969 0.992188 8.55469 0.992188 9C0.992188 9.4375 1.35156 9.82812 1.79688 9.82812Z" fill="black"/>
</svg>
