<svg width="24" height="24" viewBox="0 0 24 24" fill="none" xmlns="http://www.w3.org/2000/svg">
<path d="M13.1233 0.00878906C15.3743 0.0123391 15.828 0.0293758 16.9425 0.0802237C18.2193 0.138462 19.0914 0.341271 19.8544 0.637843C20.6433 0.944367 21.3123 1.35456 21.9792 2.02146C22.6461 2.68841 23.0563 3.35741 23.3629 4.14627C23.6594 4.90932 23.8622 5.78137 23.9205 7.05822C23.9788 8.33775 23.9926 8.74627 23.9926 12.0043L23.9926 12.3108C23.9917 15.2895 23.977 15.712 23.9205 16.9503C23.8622 18.2271 23.6594 19.0992 23.3629 19.8622C23.0563 20.6511 22.6461 21.3201 21.9792 21.987C21.3123 22.6539 20.6433 23.0641 19.8544 23.3707C19.0914 23.6672 18.2193 23.87 16.9425 23.9283C15.6629 23.9867 15.2544 24.0005 11.9965 24.0005L11.6899 24.0004C8.7112 23.9995 8.28866 23.9848 7.05041 23.9283C5.77355 23.87 4.90151 23.6672 4.13846 23.3707C3.3496 23.0641 2.6806 22.6539 2.01365 21.987C1.34674 21.3201 0.936554 20.6511 0.63003 19.8622C0.333459 19.0992 0.130649 18.2271 0.0724112 16.9503C0.0215633 15.8358 0.00452655 15.3821 0.000976562 13.1311V10.8774C0.00452655 8.62634 0.0215633 8.17265 0.0724112 7.05822C0.130649 5.78137 0.333459 4.90932 0.63003 4.14627C0.936554 3.35741 1.34674 2.68841 2.01365 2.02146C2.6806 1.35456 3.3496 0.944367 4.13846 0.637843C4.90151 0.341271 5.77355 0.138462 7.05041 0.0802237C8.16483 0.0293758 8.61853 0.0123391 10.8696 0.00878906H13.1233ZM12.8764 2.16991H11.1165C8.70857 2.17241 8.28739 2.18752 7.14894 2.23946C5.97932 2.2928 5.34413 2.48822 4.92141 2.65251C4.36146 2.87013 3.96184 3.13008 3.54208 3.54989C3.12227 3.96965 2.86232 4.36927 2.6447 4.92922C2.48041 5.35194 2.28498 5.98713 2.23165 7.15675C2.17971 8.29521 2.1646 8.71639 2.1621 11.1243V12.8842C2.1646 15.2921 2.17971 15.7133 2.23165 16.8517C2.28498 18.0214 2.48041 18.6566 2.6447 19.0793C2.86232 19.6392 3.12232 20.0388 3.54208 20.4586C3.96184 20.8784 4.36146 21.1384 4.92141 21.356C5.34413 21.5203 5.97932 21.7157 7.14894 21.769C8.28726 21.821 8.70836 21.8361 11.1165 21.8386H12.8764C15.2845 21.8361 15.7056 21.821 16.8439 21.769C18.0136 21.7157 18.6487 21.5203 19.0715 21.356C19.6314 21.1384 20.031 20.8784 20.4508 20.4586C20.8706 20.0388 21.1306 19.6392 21.3482 19.0793C21.5125 18.6566 21.7079 18.0214 21.7612 16.8517C21.8132 15.7133 21.8283 15.2921 21.8308 12.8842V11.1243C21.8283 8.71639 21.8132 8.29521 21.7612 7.15675C21.7079 5.98713 21.5125 5.35194 21.3482 4.92922C21.1306 4.36927 20.8706 3.96965 20.4508 3.54989C20.031 3.13008 19.6314 2.87013 19.0715 2.65251C18.6487 2.48822 18.0136 2.2928 16.8439 2.23946C15.7055 2.18752 15.2843 2.17241 12.8764 2.16991ZM11.9965 5.84403C15.3986 5.84403 18.1566 8.60203 18.1566 12.0043C18.1566 15.4065 15.3986 18.1645 11.9965 18.1645C8.59422 18.1645 5.83622 15.4065 5.83622 12.0043C5.83622 8.60203 8.59422 5.84403 11.9965 5.84403ZM11.9965 8.00551C9.78798 8.00551 7.9977 9.79579 7.9977 12.0043C7.9977 14.2127 9.78798 16.003 11.9965 16.003C14.2049 16.003 15.9952 14.2127 15.9952 12.0043C15.9952 9.79579 14.2049 8.00551 11.9965 8.00551ZM18.4 4.16108C19.1951 4.16108 19.8396 4.8056 19.8396 5.60065C19.8396 6.3957 19.1951 7.04018 18.4 7.04018C17.605 7.04018 16.9605 6.3957 16.9605 5.60065C16.9605 4.8056 17.605 4.16108 18.4 4.16108Z" fill="white"/>
</svg>
