<svg width="16" height="13" viewBox="0 0 16 13" fill="none" xmlns="http://www.w3.org/2000/svg">
<path d="M15.5 6.35938C15.5 6.27344 15.4688 6.20312 15.4062 6.14062L10.125 0.820312C10 0.695312 9.92188 0.664062 9.83594 0.664062C9.65625 0.664062 9.53125 0.796875 9.53125 0.953125C9.53125 1.03906 9.55469 1.11719 9.60938 1.17969L12.7344 4.30469L14.5938 6.10156L12.8906 6.0625H1.28906C1.125 6.0625 0.992188 6.1875 0.992188 6.35938C0.992188 6.53125 1.125 6.65625 1.28906 6.65625H12.8906L14.6016 6.60938L12.7344 8.41406L9.60938 11.5391C9.5625 11.5859 9.53125 11.6719 9.53125 11.7578C9.53125 11.9219 9.65625 12.0547 9.83594 12.0547C9.92188 12.0547 9.98438 12.0234 10.0547 11.9609L15.4062 6.57812C15.4688 6.51562 15.5 6.44531 15.5 6.35938Z" fill="white"/>
</svg>
