<svg width="16" height="13" viewBox="0 0 16 13" fill="none" xmlns="http://www.w3.org/2000/svg">
<path d="M0.499999 6.64063C0.499999 6.72656 0.531249 6.79688 0.593749 6.85938L5.875 12.1797C6 12.3047 6.07812 12.3359 6.16406 12.3359C6.34375 12.3359 6.46875 12.2031 6.46875 12.0469C6.46875 11.9609 6.44531 11.8828 6.39062 11.8203L3.26562 8.69531L1.40625 6.89844L3.10937 6.9375L14.7109 6.9375C14.875 6.9375 15.0078 6.8125 15.0078 6.64063C15.0078 6.46875 14.875 6.34375 14.7109 6.34375L3.10937 6.34375L1.39844 6.39063L3.26562 4.58594L6.39062 1.46094C6.4375 1.41406 6.46875 1.32813 6.46875 1.24219C6.46875 1.07813 6.34375 0.945313 6.16406 0.945313C6.07812 0.945313 6.01562 0.976563 5.94531 1.03906L0.593749 6.42188C0.531249 6.48438 0.499999 6.55469 0.499999 6.64063Z" fill="white"/>
</svg>
