<svg width="50" height="50" viewBox="0 0 24 24" fill="none" xmlns="http://www.w3.org/2000/svg">
<path fill-rule="evenodd" clip-rule="evenodd" d="M21.5577 8.28916C21.5577 8.07928 21.5533 7.87034 21.5436 7.66254C22.5049 6.97847 23.3407 6.12486 24 5.15295C23.1177 5.53869 22.1682 5.79875 21.1722 5.91593C22.1889 5.31605 22.9693 4.36653 23.3374 3.23482C22.3859 3.79 21.3324 4.19379 20.2109 4.41123C19.3124 3.46917 18.0327 2.87988 16.6167 2.87988C13.8972 2.87988 11.692 5.05061 11.692 7.72652C11.692 8.10697 11.7353 8.47674 11.8197 8.83168C7.72752 8.62917 4.09872 6.70036 1.6704 3.7676C1.24714 4.48371 1.00358 5.31605 1.00358 6.20368C1.00358 7.88537 1.87286 9.36985 3.19469 10.2383C2.38714 10.2138 1.62826 9.99533 0.964608 9.63189C0.963456 9.65211 0.963456 9.67243 0.963456 9.69369C0.963456 12.0414 2.66102 14.0011 4.91386 14.4455C4.50038 14.5563 4.06512 14.616 3.61584 14.616C3.29866 14.616 2.99011 14.5851 2.69021 14.5286C3.31709 16.4543 5.13475 17.8556 7.29014 17.8951C5.60458 19.1951 3.48163 19.9698 1.17466 19.9698C0.777312 19.9698 0.38544 19.9475 0 19.9027C2.1793 21.2774 4.76669 22.0799 7.54781 22.0799C16.6048 22.0799 21.5577 14.6938 21.5577 8.28916Z" fill="white"/>
<mask id="mask0" mask-type="alpha" maskUnits="userSpaceOnUse" x="0" y="2" width="24" height="21">
<path fill-rule="evenodd" clip-rule="evenodd" d="M21.5577 8.28916C21.5577 8.07928 21.5533 7.87034 21.5436 7.66254C22.5049 6.97847 23.3407 6.12486 24 5.15295C23.1177 5.53869 22.1682 5.79875 21.1722 5.91593C22.1889 5.31605 22.9693 4.36653 23.3374 3.23482C22.3859 3.79 21.3324 4.19379 20.2109 4.41123C19.3124 3.46917 18.0327 2.87988 16.6167 2.87988C13.8972 2.87988 11.692 5.05061 11.692 7.72652C11.692 8.10697 11.7353 8.47674 11.8197 8.83168C7.72752 8.62917 4.09872 6.70036 1.6704 3.7676C1.24714 4.48371 1.00358 5.31605 1.00358 6.20368C1.00358 7.88537 1.87286 9.36985 3.19469 10.2383C2.38714 10.2138 1.62826 9.99533 0.964608 9.63189C0.963456 9.65211 0.963456 9.67243 0.963456 9.69369C0.963456 12.0414 2.66102 14.0011 4.91386 14.4455C4.50038 14.5563 4.06512 14.616 3.61584 14.616C3.29866 14.616 2.99011 14.5851 2.69021 14.5286C3.31709 16.4543 5.13475 17.8556 7.29014 17.8951C5.60458 19.1951 3.48163 19.9698 1.17466 19.9698C0.777312 19.9698 0.38544 19.9475 0 19.9027C2.1793 21.2774 4.76669 22.0799 7.54781 22.0799C16.6048 22.0799 21.5577 14.6938 21.5577 8.28916Z" fill="white"/>
</mask>
<g mask="url(#mask0)">
<rect width="24" height="24" fill="white"/>
</g>
</svg>
